<svg width="50" height="50" viewBox="0 0 50 50" fill="none" xmlns="http://www.w3.org/2000/svg">
<path d="M25 50C38.8071 50 50 38.8071 50 25C50 11.1929 38.8071 0 25 0C11.1929 0 0 11.1929 0 25C0 38.8071 11.1929 50 25 50Z" fill="black"/>
<path d="M31.3356 22.6349L30.9211 26.1151C30.9032 26.2768 30.8261 26.4261 30.7046 26.5342C30.5831 26.6424 30.4259 26.7016 30.2632 26.7007H26.6448V37.0296C26.6457 37.1529 26.5978 37.2716 26.5115 37.3597C26.4252 37.4478 26.3076 37.4983 26.1843 37.5H22.4968C22.4354 37.4991 22.3749 37.4862 22.3185 37.4619C22.2622 37.4377 22.2112 37.4025 22.1684 37.3585C22.1256 37.3146 22.0919 37.2626 22.0693 37.2056C22.0466 37.1486 22.0354 37.0877 22.0362 37.0263L22.056 26.7007H19.3159C19.1414 26.7007 18.974 26.6313 18.8507 26.508C18.7273 26.3846 18.658 26.2172 18.658 26.0428V22.5625C18.658 22.388 18.7273 22.2207 18.8507 22.0973C18.974 21.9739 19.1414 21.9046 19.3159 21.9046H22.0395V18.5296C22.0395 14.625 24.3619 12.5 27.7632 12.5H30.5494C30.7239 12.5 30.8912 12.5693 31.0146 12.6927C31.138 12.8161 31.2073 12.9834 31.2073 13.1579V16.0888C31.2073 16.2633 31.138 16.4306 31.0146 16.554C30.8912 16.6774 30.7239 16.7467 30.5494 16.7467H28.8422C26.9935 16.7763 26.6448 17.6612 26.6448 18.9836V21.8947H30.6941C30.7865 21.8963 30.8775 21.9173 30.9613 21.9564C31.045 21.9955 31.1195 22.0518 31.18 22.1217C31.2405 22.1915 31.2857 22.2733 31.3125 22.3617C31.3393 22.4501 31.3472 22.5432 31.3356 22.6349Z" fill="white"/>
</svg>
