<svg width="50" height="50" viewBox="0 0 50 50" fill="none" xmlns="http://www.w3.org/2000/svg">
<path d="M25 50C38.8071 50 50 38.8071 50 25C50 11.1929 38.8071 0 25 0C11.1929 0 0 11.1929 0 25C0 38.8071 11.1929 50 25 50Z" fill="black"/>
<path d="M19.4078 15.9112C19.4085 16.5868 19.2087 17.2474 18.8337 17.8094C18.4588 18.3714 17.9256 18.8096 17.3015 19.0684C16.6775 19.3272 15.9907 19.3951 15.328 19.2635C14.6654 19.1319 14.0567 18.8066 13.5789 18.3289C13.1012 17.8512 12.776 17.2424 12.6443 16.5798C12.5127 15.9171 12.5806 15.2303 12.8394 14.6063C13.0982 13.9822 13.5364 13.449 14.0984 13.0741C14.6604 12.6991 15.321 12.4994 15.9966 12.5C16.9011 12.5009 17.7682 12.8605 18.4077 13.5001C19.0473 14.1396 19.4069 15.0068 19.4078 15.9112Z" fill="white"/>
<path d="M17.7927 20.7466H14.2006C13.7337 20.7466 13.3552 21.1251 13.3552 21.592V36.6545C13.3552 37.1214 13.7337 37.4999 14.2006 37.4999H17.7927C18.2596 37.4999 18.6381 37.1214 18.6381 36.6545V21.592C18.6381 21.1251 18.2596 20.7466 17.7927 20.7466Z" fill="white"/>
<path d="M37.4177 29.4309V36.7237C37.4177 36.9296 37.3359 37.127 37.1903 37.2726C37.0447 37.4182 36.8473 37.5 36.6414 37.5H32.7861C32.5802 37.5 32.3828 37.4182 32.2372 37.2726C32.0916 37.127 32.0098 36.9296 32.0098 36.7237V29.6579C32.0098 28.602 32.3157 25.0526 29.2532 25.0526C26.8782 25.0526 26.3947 27.4934 26.2927 28.5888V36.7401C26.2884 36.942 26.2056 37.1343 26.0619 37.2762C25.9182 37.418 25.7249 37.4983 25.5229 37.5H21.7927C21.6906 37.5004 21.5895 37.4807 21.4951 37.4418C21.4007 37.4029 21.3149 37.3458 21.2428 37.2736C21.1706 37.2014 21.1134 37.1157 21.0746 37.0213C21.0357 36.9269 21.0159 36.8258 21.0164 36.7237V21.5263C21.0159 21.4241 21.0357 21.3228 21.0745 21.2282C21.1133 21.1337 21.1704 21.0477 21.2426 20.9753C21.3147 20.9028 21.4004 20.8453 21.4948 20.8061C21.5892 20.7669 21.6905 20.7467 21.7927 20.7467H25.5229C25.6264 20.745 25.7292 20.7638 25.8253 20.8022C25.9214 20.8406 26.0089 20.8978 26.0827 20.9703C26.1565 21.0429 26.2151 21.1295 26.2551 21.2249C26.2951 21.3204 26.3157 21.4228 26.3157 21.5263V22.8421C27.1973 21.5263 28.5065 20.5 31.2927 20.5C37.4539 20.4967 37.4177 26.2632 37.4177 29.4309Z" fill="white"/>
</svg>
