<svg width="50" height="50" viewBox="0 0 50 50" fill="none" xmlns="http://www.w3.org/2000/svg">
<g clip-path="url(#clip0_165_386)">
<path d="M25 0C11.195 0 0 11.195 0 25C0 38.805 11.195 50 25 50C38.805 50 50 38.805 50 25C50 11.195 38.805 0 25 0ZM25.5299 39.5557C25.5295 39.5557 25.5302 39.5557 25.5299 39.5557H25.5238C23.0194 39.5546 20.5585 38.9267 18.3731 37.735L10.4412 39.8151L12.5641 32.0637C11.2545 29.7955 10.5656 27.2221 10.5667 24.5857C10.5701 16.3383 17.2825 9.62868 25.5299 9.62868C29.5322 9.6302 33.2893 11.1881 36.1141 14.0152C38.9393 16.8427 40.4942 20.6009 40.4926 24.5975C40.4892 32.8453 33.7761 39.5557 25.5299 39.5557Z" fill="black"/>
<path d="M25.5348 12.1553C18.6748 12.1553 13.0958 17.732 13.0928 24.587C13.092 26.9361 13.7497 29.2238 14.9944 31.2032L15.29 31.6736L14.0335 36.2615L18.7404 35.0271L19.1948 35.2964C21.104 36.4293 23.2929 37.0286 25.5245 37.0294H25.5294C32.3841 37.0294 37.9631 31.4523 37.9661 24.5969C37.9673 21.2747 36.6748 18.1512 34.3269 15.8014C31.979 13.4515 28.8562 12.1564 25.5348 12.1553ZM32.8499 29.9321C32.5382 30.8049 31.0447 31.6018 30.3264 31.7094C29.6821 31.8055 28.8673 31.8456 27.9716 31.5614C27.4284 31.389 26.7322 31.159 25.84 30.774C22.0897 29.1551 19.6403 25.3801 19.4534 25.1306C19.2665 24.8811 17.9268 23.1038 17.9268 21.264C17.9268 19.4246 18.8926 18.5201 19.2352 18.1463C19.5781 17.772 19.9833 17.6786 20.2324 17.6786C20.4815 17.6786 20.7309 17.6809 20.9488 17.6915C21.1784 17.703 21.4866 17.6042 21.7899 18.3332C22.1016 19.0816 22.8492 20.9211 22.9427 21.108C23.0362 21.2953 23.0983 21.5135 22.974 21.763C22.8492 22.0125 22.435 22.5507 22.0394 23.0413C21.8734 23.2469 21.6572 23.43 21.8754 23.8042C22.0932 24.1781 22.8439 25.4022 23.9551 26.3932C25.3833 27.6666 26.588 28.061 26.9619 28.2483C27.3353 28.4353 27.5535 28.404 27.7717 28.1549C27.9895 27.9054 28.7063 27.0635 28.9554 26.6893C29.2045 26.315 29.454 26.3776 29.7966 26.5023C30.1395 26.6267 31.9774 27.5312 32.3513 27.7181C32.7251 27.9054 32.9742 27.9989 33.0677 28.1549C33.1615 28.3109 33.1615 29.059 32.8499 29.9321Z" fill="black"/>
</g>
<defs>
<clipPath id="clip0_165_386">
<rect width="50" height="50" fill="white"/>
</clipPath>
</defs>
</svg>
